# xmcd
#
# Track frame offsets:
#	150
#	15025
#	31050
#	42787
#	58527
#	71990
#	82295
#	97172
#	109140
#	122012
#	138357
#	153235
#	168535
#
# Disc length: 2443 seconds
#
# Revision: 0
# Processed by: cddbd v1.5.2PL0 Copyright (c) Steve Scherf et al.
# Submitted via: EasyCDDAExtractor 8.0.0.2
#
DISCID=a809890d
DTITLE=Manno e Magno - Por Causa Dela
DYEAR=2007
DGENRE=Sertanejo
TTITLE0=Por causa dela
TTITLE1=Ela trabalha comigo
TTITLE2=Cara bonita
TTITLE3=Na bundinha
TTITLE4=Papo virtual
TTITLE5=A caminhonete
TTITLE6=Tema de novela
TTITLE7=Pe na bunda
TTITLE8=Quando a gente ama
TTITLE9=De pai para filho
TTITLE10=Voce em minha vida
TTITLE11=O futuro do planeta
TTITLE12=Por causa dela sem teodoro e sampaio
EXTD=
EXTT0=
EXTT1=
EXTT2=
EXTT3=
EXTT4=
EXTT5=
EXTT6=
EXTT7=
EXTT8=
EXTT9=
EXTT10=
EXTT11=
EXTT12=
PLAYORDER=
